<mxfile host="app.diagrams.net" modified="2023-12-01T14:12:04.537Z" agent="Mozilla/5.0 (Windows NT 10.0; Win64; x64) AppleWebKit/537.36 (KHTML, like Gecko) Chrome/118.0.0.0 Safari/537.36 OPR/104.0.0.0" version="22.1.5" etag="GGwhvlXIcBvow82t1yU1" type="github">
  <diagram name="Страница — 1" id="Ez8B4yqItI0BqrcQD-Dh">
    <mxGraphModel>
      <root>
        <mxCell id="0" />
        <mxCell id="1" parent="0" />
      </root>
    </mxGraphModel>
  </diagram>
</mxfile>
